<?xml version="1.0" encoding="UTF-8" standalone="no"?>
<!-- Created with Inkscape (http://www.inkscape.org/) -->

<svg
   xmlns:dc="http://purl.org/dc/elements/1.1/"
   xmlns:cc="http://creativecommons.org/ns#"
   xmlns:rdf="http://www.w3.org/1999/02/22-rdf-syntax-ns#"
   xmlns:svg="http://www.w3.org/2000/svg"
   xmlns="http://www.w3.org/2000/svg"
   xmlns:sodipodi="http://sodipodi.sourceforge.net/DTD/sodipodi-0.dtd"
   xmlns:inkscape="http://www.inkscape.org/namespaces/inkscape"
   version="1.1"
   id="svg151"
   width="187.00359"
   height="256.66623">
  <metadata
     id="metadata157">
    <rdf:RDF>
      <cc:Work
         rdf:about="">
        <dc:format>image/svg+xml</dc:format>
        <dc:type
           rdf:resource="http://purl.org/dc/dcmitype/StillImage" />
      </cc:Work>
    </rdf:RDF>
  </metadata>
  <defs
     id="defs155" />
  <sodipodi:namedview
     pagecolor="#ffffff"
     bordercolor="#666666"
     borderopacity="1"
     objecttolerance="10"
     gridtolerance="10"
     guidetolerance="10"
     inkscape:pageopacity="0"
     inkscape:pageshadow="2"
     inkscape:window-width="640"
     inkscape:window-height="480"
     id="namedview153" />
  <inkscape:clipboard
     style="font-variant-east_asian:normal;opacity:1;vector-effect:none;fill:#000000;fill-opacity:1;stroke-width:3.77952756;stroke-linecap:butt;stroke-linejoin:miter;stroke-miterlimit:4;stroke-dasharray:none;stroke-dashoffset:0;stroke-opacity:1"
     min="891.49075,701.81348"
     max="1078.4943,958.47969" />
  <g
     transform="matrix(3.7795276,0,0,3.7795276,-671.15049,-294.45197)"
     id="g139">
    <g
       transform="translate(102.48302,-6.0076252)"
       id="g137">
      <path
         style="fill:#5697a1;stroke-width:1"
         d="m 106.03071,114.92534 c -0.92663,-0.34365 -3.13804,-1.26549 -4.36562,-1.81984 -0.72761,-0.32856 -3.823233,-1.6415 -6.879171,-2.91764 -3.055937,-1.27614 -6.151562,-2.5906 -6.879166,-2.92103 -3.205779,-1.45588 -4.453808,-1.97215 -4.767443,-1.97215 -0.184782,0 -0.720934,-0.35961 -1.191445,-0.79913 -0.730978,-0.68284 -0.834202,-0.93023 -0.709298,-1.69994 0.157004,-0.96749 0.736587,-1.67747 1.781432,-2.1822 1.251442,-0.60453 3.712827,-1.668728 3.859612,-1.668728 0.08129,0 0.919507,-0.357188 1.862704,-0.79375 0.943194,-0.436563 1.773497,-0.79375 1.845117,-0.79375 0.07162,0 0.80745,-0.307261 1.635185,-0.682802 0.827734,-0.375542 1.743094,-0.78576 2.034136,-0.911596 2.374058,-1.026454 3.342989,-1.440679 6.482287,-2.771227 3.98529,-1.689108 5.69779,-2.425043 6.4823,-2.785722 1.17358,-0.539559 7.48611,-3.252675 8.59895,-3.695819 0.65485,-0.260763 2.32172,-0.967499 3.70417,-1.570523 2.92451,-1.275669 4.14928,-1.34945 4.68637,-0.282311 0.48712,0.967856 0.47549,20.359918 -0.013,21.762688 -0.7342,2.10814 -1.04806,2.29389 -11.2879,6.68078 -3.83489,1.64292 -5.8955,2.1895 -6.87917,1.82469 z"
         id="path129"
         inkscape:connector-curvature="0"
         sodipodi:nodetypes="ccsccsscscssccsscscccc" />
      <g
         id="g133">
        <path
           sodipodi:nodetypes="ccsccsccssccsccccccsssccccscccssccccccsccccccccsscsccccccccccsccccc"
           inkscape:connector-curvature="0"
           id="path131"
           d="m 118.99529,150.65229 c -1.52796,-0.65482 -3.40645,-1.48411 -4.17442,-1.84288 -0.76796,-0.35876 -1.54514,-0.6523 -1.72706,-0.6523 -0.18193,0 -0.56563,-0.15533 -0.85266,-0.34519 -0.28705,-0.18986 -1.35533,-0.68457 -2.37398,-1.09935 -1.01865,-0.41479 -2.4474,-1.02408 -3.175,-1.35397 -0.7276,-0.32989 -3.44401,-1.50396 -6.03645,-2.60906 -2.592447,-1.10509 -5.29716,-2.305 -6.010477,-2.66647 -0.713317,-0.36146 -1.419643,-0.65721 -1.569614,-0.65721 -0.149969,0 -1.01713,-0.34645 -1.927024,-0.7699 -0.909894,-0.42345 -3.261696,-1.44924 -5.226227,-2.27952 -6.812651,-2.8793 -8.338704,-3.61521 -9.194271,-4.43377 -0.472943,-0.45248 -0.859896,-1.01365 -0.859896,-1.24704 0,-0.2334 -0.148828,-0.57307 -0.330729,-0.75483 -0.425082,-0.42477 -0.636429,-23.52028 -0.219051,-23.93766 0.177204,-0.1772 0.664228,0.10262 1.46785,0.84338 0.661461,0.60971 1.469633,1.22405 1.795939,1.3652 0.326305,0.14114 0.771876,0.37246 0.990158,0.51404 0.218281,0.14157 1.5875,0.74075 3.042708,1.33152 2.883241,1.17048 5.945209,2.50662 7.052281,3.07736 0.386255,0.19913 0.824434,0.36206 0.973727,0.36206 0.149297,0 1.023896,0.34582 1.943553,0.7685 0.919657,0.42268 4.112887,1.79962 7.096064,3.05985 2.983179,1.26024 6.022649,2.57204 6.754379,2.9151 0.73173,0.34307 2.2488,0.98858 3.37126,1.43447 1.12247,0.44589 2.25019,0.91917 2.50604,1.05173 0.25586,0.13256 1.00098,0.45264 1.65582,0.71128 0.65484,0.25864 2.02406,0.85816 3.04271,1.33227 1.01865,0.47412 2.18063,0.94276 2.58219,1.04143 0.40156,0.0987 0.79553,0.28528 0.87551,0.41468 0.08,0.1294 0.31952,0.23527 0.53234,0.23527 0.70102,0 2.4455,1.35146 2.85303,2.21026 0.33347,0.70273 0.40564,2.53704 0.43374,11.02418 0.0411,12.40262 0.0819,11.25135 -0.41654,11.74978 -0.6745,0.6745 -1.92628,0.47086 -4.8759,-0.79321 z m -12.7,-35.8823 c -0.3638,-0.15311 -0.89958,-0.37508 -1.19062,-0.49327 -1.46777,-0.59605 -9.099937,-3.78623 -9.789584,-4.09197 -2.235544,-0.99105 -4.60448,-1.97972 -4.743585,-1.97972 -0.08634,0 -0.661691,-0.2291 -1.27857,-0.5091 -2.734969,-1.24141 -4.371461,-1.95669 -5.354928,-2.34052 -1.846863,-0.72081 -2.514547,-1.32369 -2.504739,-2.26163 0.01574,-1.50453 0.767096,-2.04719 5.547447,-4.006489 0.945885,-0.387683 2.104242,-0.880441 2.574126,-1.095012 0.469884,-0.214572 1.352574,-0.56592 1.961533,-0.780775 0.608958,-0.214852 1.236539,-0.488156 1.394625,-0.607341 0.158083,-0.119184 0.704143,-0.372684 1.213466,-0.563335 0.509323,-0.190649 1.402292,-0.560315 1.984375,-0.821479 0.582083,-0.261164 3.73724,-1.621195 7.011454,-3.022291 3.27422,-1.401096 6.58146,-2.837322 7.34943,-3.191614 0.76796,-0.354291 1.473,-0.644165 1.56675,-0.644165 0.0938,0 1.48949,-0.583362 3.10163,-1.29636 3.54105,-1.566099 3.92167,-1.713861 4.22982,-1.642095 0.13219,0.03078 0.31078,-0.04526 0.39688,-0.168994 0.29624,-0.425728 2.9055,-1.348552 3.42724,-1.212116 1.0496,0.274477 1.12178,1.107642 1.04046,12.009349 l -0.0778,10.434177 -0.62375,0.87452 c -0.68861,0.96547 -2.25025,2.04935 -3.35055,2.32551 -0.39104,0.0981 -1.2052,0.44122 -1.80924,0.7624 -0.60404,0.32117 -1.56923,0.73938 -2.14487,0.92936 -0.57563,0.18997 -1.58707,0.6113 -2.24764,0.93627 -0.66057,0.32497 -1.67728,0.79585 -2.25937,1.0464 -0.58208,0.25054 -1.29646,0.55923 -1.5875,0.68598 -0.71535,0.31152 -2.87813,1.03424 -3.04271,1.01676 -0.0728,-0.008 -0.42994,-0.13933 -0.79375,-0.29245 z"
           style="fill:#f14a53;stroke-width:1" />
      </g>
      <path
         style="fill:#0075a0;stroke-width:1"
         d="m 106.29529,114.76952 c -0.3638,-0.15311 -0.89958,-0.37508 -1.19062,-0.49327 -1.46777,-0.59605 -9.099937,-3.78623 -9.789584,-4.09197 -2.235544,-0.99105 -4.60448,-1.97972 -4.743585,-1.97972 -0.08634,0 -0.661691,-0.2291 -1.27857,-0.5091 -2.734969,-1.24141 -4.371461,-1.95669 -5.354928,-2.34052 -1.846863,-0.72081 -2.514547,-1.32369 -2.504739,-2.26163 0.01574,-1.50453 0.767096,-2.04719 5.547447,-4.006489 0.945885,-0.387683 2.104242,-0.880441 2.574126,-1.095012 0.469884,-0.214572 1.352574,-0.56592 1.961533,-0.780775 0.608958,-0.214852 1.236539,-0.488156 1.394625,-0.607341 0.158083,-0.119184 0.704143,-0.372684 1.213466,-0.563335 0.509323,-0.190649 1.402292,-0.560315 1.984375,-0.821479 0.582083,-0.261164 3.73724,-1.621195 7.011454,-3.022291 3.27422,-1.401096 6.58146,-2.837322 7.34943,-3.191614 0.76796,-0.354291 1.473,-0.644165 1.56675,-0.644165 0.0938,0 1.48949,-0.583362 3.10163,-1.29636 3.54105,-1.566099 3.92167,-1.713861 4.22982,-1.642095 0.13219,0.03078 0.31078,-0.04526 0.39688,-0.168994 0.29624,-0.425728 2.9055,-1.348552 3.42724,-1.212116 1.0496,0.274477 1.12178,1.107642 1.04046,12.009349 l -0.0778,10.434177 -0.62375,0.87452 c -0.68861,0.96547 -2.25025,2.04935 -3.35055,2.32551 -0.39104,0.0981 -1.2052,0.44122 -1.80924,0.7624 -0.60404,0.32117 -1.56923,0.73938 -2.14487,0.92936 -0.57563,0.18997 -1.58707,0.6113 -2.24764,0.93627 -0.66057,0.32497 -1.67728,0.79585 -2.25937,1.0464 -0.58208,0.25054 -1.29646,0.55923 -1.5875,0.68598 -0.71535,0.31152 -2.87813,1.03424 -3.04271,1.01676 -0.0728,-0.008 -0.42994,-0.13933 -0.79375,-0.29245 z"
         id="path135"
         inkscape:connector-curvature="0"
         sodipodi:nodetypes="ccsccccccccsscsccccccccccscccccc" />
    </g>
  </g>
</svg>
